# Blender 4.4.3
# www.blender.org
mtllib kumoattack.mtl
o çƒä½“
v -164.015594 0.072303 20.044321
v -164.015594 0.016965 20.007345
v -164.015594 -0.048311 20.020329
v -163.981430 0.072303 20.058472
v -163.955292 0.016965 20.032326
v -163.964462 -0.048311 20.041506
v -164.003601 -0.085287 20.080637
v -164.015594 0.086958 20.092632
v -163.967285 0.072303 20.092632
v -163.930313 0.016965 20.092632
v -163.943298 -0.048311 20.092632
v -163.998627 -0.085287 20.092632
v -163.981430 0.072303 20.126793
v -163.955292 0.016965 20.152939
v -163.964462 -0.048311 20.143759
v -164.003601 -0.085287 20.104628
v -164.015594 0.072303 20.140944
v -164.015594 0.016965 20.177919
v -164.015594 -0.048311 20.164936
v -164.015594 -0.085287 20.109596
v -164.049759 0.072303 20.126793
v -164.075897 0.016965 20.152939
v -164.066727 -0.048311 20.143759
v -164.027588 -0.085287 20.104628
v -164.015594 -0.086958 20.092632
v -164.063904 0.072303 20.092632
v -164.100876 0.016965 20.092632
v -164.087891 -0.048311 20.092632
v -164.032562 -0.085287 20.092632
v -164.049759 0.072303 20.058472
v -164.075897 0.016965 20.032326
v -164.066727 -0.048311 20.041506
v -164.027588 -0.085287 20.080637
v -164.015594 -0.085287 20.075668
vn 0.3764 -0.1807 -0.9087
vn 0.1194 0.9501 -0.2882
vn 0.0406 -0.9944 -0.0979
vn 0.7862 0.5253 -0.3256
vn -0.3256 0.5253 -0.7862
vn 0.2882 0.9501 -0.1194
vn 0.5414 -0.8103 -0.2243
vn 0.0979 -0.9944 -0.0406
vn 0.3764 -0.1807 0.9087
vn 0.7862 0.5253 0.3256
vn 0.2882 0.9501 0.1194
vn -0.2243 -0.8103 0.5414
vn 0.0979 -0.9944 0.0406
vn 0.3256 0.5253 0.7862
vn -0.3764 -0.1807 0.9087
vn 0.1194 0.9501 0.2882
vn -0.5414 -0.8103 0.2243
vn 0.0406 -0.9944 0.0979
vn -0.3256 0.5253 0.7862
vn -0.9087 -0.1807 0.3764
vn -0.1194 0.9501 0.2882
vn -0.5414 -0.8103 -0.2243
vn -0.0406 -0.9944 0.0979
vn -0.7862 0.5253 0.3256
vn -0.9087 -0.1807 -0.3764
vn -0.2882 0.9501 0.1194
vn -0.2243 -0.8103 -0.5414
vn -0.0979 -0.9944 0.0406
vn -0.2882 0.9501 -0.1194
vn -0.0406 -0.9944 -0.0979
vn -0.7862 0.5253 -0.3256
vn -0.0979 -0.9944 -0.0406
vn -0.1194 0.9501 -0.2882
vn 0.9087 -0.1807 -0.3764
vn 0.9087 -0.1807 0.3764
vn 0.2243 -0.8103 -0.5414
vn 0.5414 -0.8103 0.2243
vn -0.3764 -0.1807 -0.9087
vn 0.2243 -0.8103 0.5414
vn 0.3256 0.5253 -0.7862
vt 0.199719 0.162026
vt 0.223669 0.232873
vt 0.195994 0.221412
vt 0.192782 0.276630
vt 0.212655 0.285128
vt 0.185271 0.316148
vt 0.285198 0.114935
vt 0.303533 0.129573
vt 0.276590 0.127022
vt 0.173010 0.277830
vt 0.167815 0.223101
vt 0.251320 0.251376
vt 0.233960 0.301155
vt 0.162048 0.164243
vt 0.327779 0.117445
vt 0.103161 0.198747
vt 0.140325 0.237004
vt 0.112233 0.255819
vt 0.153014 0.288418
vt 0.071669 0.145658
vt 0.077018 0.209616
vt 0.092624 0.129999
vt 0.067008 0.129573
vt 0.091254 0.117445
vt 0.130702 0.305682
vt 0.080213 0.269052
vt 0.308194 0.145658
vt 0.287218 0.208033
vt 0.295959 0.144909
vt 0.083388 0.140317
vt 0.093118 0.323320
vt 0.313543 0.209616
vt 0.282196 0.267006
vt 0.261085 0.194754
vt 0.284594 0.138225
vt 0.329643 0.323320
vt 0.265021 0.319814
vt 0.130151 0.180518
vt 0.233367 0.175991
vt 0.316739 0.269052
s 0
usemtl standardSurface1
f 6/1/1 2/2/1 5/3/1
f 4/4/2 1/5/2 8/6/2
f 7/7/3 25/8/3 34/9/3
f 5/3/4 9/10/4 10/11/4
f 1/5/5 31/12/5 30/13/5
f 8/6/6 9/10/6 4/4/6
f 7/7/7 11/14/7 12/15/7
f 12/15/8 25/8/8 7/7/8
f 19/16/9 14/17/9 18/18/9
f 14/17/10 9/10/10 13/19/10
f 8/6/11 13/19/11 9/10/11
f 24/20/12 19/16/12 23/21/12
f 16/22/13 25/23/13 12/24/13
f 14/17/14 17/25/14 18/18/14
f 19/16/15 22/26/15 23/21/15
f 8/6/16 17/25/16 13/19/16
f 24/27/17 28/28/17 29/29/17
f 20/30/18 25/23/18 16/22/18
f 18/18/19 21/31/19 22/26/19
f 23/32/20 27/33/20 28/28/20
f 8/6/21 21/31/21 17/25/21
f 29/29/22 32/34/22 33/35/22
f 24/20/23 25/23/23 20/30/23
f 27/33/24 21/36/24 26/37/24
f 28/28/25 31/12/25 32/34/25
f 8/6/26 26/37/26 21/36/26
f 32/34/27 34/9/27 33/35/27
f 29/29/28 25/8/28 24/27/28
f 8/6/29 30/13/29 26/37/29
f 34/9/30 25/8/30 33/35/30
f 31/12/31 26/37/31 30/13/31
f 33/35/32 25/8/32 29/29/32
f 1/5/33 30/13/33 8/6/33
f 6/1/34 10/11/34 11/14/34
f 15/38/35 10/11/35 14/17/35
f 3/39/36 7/7/36 34/9/36
f 12/24/37 15/38/37 16/22/37
f 2/2/38 32/34/38 31/12/38
f 16/22/39 19/16/39 20/30/39
f 2/2/40 4/4/40 5/3/40
f 6/1/1 3/39/1 2/2/1
f 5/3/4 4/4/4 9/10/4
f 1/5/5 2/2/5 31/12/5
f 7/7/7 6/1/7 11/14/7
f 19/16/9 15/38/9 14/17/9
f 14/17/10 10/11/10 9/10/10
f 24/20/12 20/30/12 19/16/12
f 14/17/14 13/19/14 17/25/14
f 19/16/15 18/18/15 22/26/15
f 24/27/17 23/32/17 28/28/17
f 18/18/19 17/25/19 21/31/19
f 23/32/20 22/40/20 27/33/20
f 29/29/22 28/28/22 32/34/22
f 27/33/24 22/40/24 21/36/24
f 28/28/25 27/33/25 31/12/25
f 32/34/27 3/39/27 34/9/27
f 31/12/31 27/33/31 26/37/31
f 6/1/34 5/3/34 10/11/34
f 15/38/35 11/14/35 10/11/35
f 3/39/36 6/1/36 7/7/36
f 12/24/37 11/14/37 15/38/37
f 2/2/38 3/39/38 32/34/38
f 16/22/39 15/38/39 19/16/39
f 2/2/40 1/5/40 4/4/40
